Coordinates
version=1
nRows=11
nColumns=63
inDegrees=yes

Units are S.I. units (second, meters, Newtons, ...)
If the header above contains a line with 'inDegrees', this indicates whether rotational values are in degrees (yes) or radians (no).

endheader
time	pelvis_tilt	pelvis_list	pelvis_rotation	pelvis_tx	pelvis_ty	pelvis_tz	hip_flexion_r	hip_adduction_r	hip_rotation_r	knee_angle_r	knee_angle_r_beta	ankle_angle_r	subtalar_angle_r	mtp_angle_r	hip_flexion_l	hip_adduction_l	hip_rotation_l	knee_angle_l	knee_angle_l_beta	ankle_angle_l	subtalar_angle_l	mtp_angle_l	L5_S1_Flex_Ext	L5_S1_Lat_Bending	L5_S1_axial_rotation	L4_L5_Flex_Ext	L4_L5_Lat_Bending	L4_L5_axial_rotation	L3_L4_Flex_Ext	L3_L4_Lat_Bending	L3_L4_axial_rotation	L2_L3_Flex_Ext	L2_L3_Lat_Bending	L2_L3_axial_rotation	L1_L2_Flex_Ext	L1_L2_Lat_Bending	L1_L2_axial_rotation	L1_T12_Flex_Ext	L1_T12_Lat_Bending	L1_T12_axial_rotation	Abs_r3	Abs_r2	Abs_r1	Abs_t1	Abs_t2	neck_flexion	neck_bending	neck_rotation	arm_flex_r	arm_add_r	arm_rot_r	elbow_flex_r	pro_sup_r	wrist_flex_r	wrist_dev_r	arm_flex_l	arm_add_l	arm_rot_l	elbow_flex_l	pro_sup_l	wrist_flex_l	wrist_dev_l
      0.42857143	     -0.47894966	     -2.94926782	     88.86454202	      0.20629422	      0.81922256	      0.56816578	     10.48749007	      1.75134642	      9.71620315	     15.57547458	      0.27184331	     41.99148526	     -8.10424614	      0.00000000	      8.14585112	      1.11660288	     19.08748052	     13.20764445	      0.23051688	     41.91502882	    -18.21736808	      0.00000000	      0.45753898	      0.00643427	     -0.41601506	      0.84969563	      0.00855757	     -0.44201600	      0.75169078	      0.01564427	     -0.44201600	      0.52292130	      0.01564427	     -0.36401318	      0.42487069	      0.01312075	     -0.33801223	      0.26143777	      0.00996668	     -0.31201129	      3.26815515	      0.07278570	     -2.31375095	      0.00000000	      0.00000000	     27.79658486	      7.57667201	      3.55689262	     16.34568800	    -20.02005116	     62.92375594	     65.58474863	     78.05875162	     -5.77109422	     -0.61091251	     15.48596468	    -26.51003883	     67.34272451	     63.89852461	     64.51078975	      7.85383595	     -6.80980494
      0.44642857	     -0.51928221	     -2.84861258	     88.86306432	      0.20690878	      0.81975274	      0.56694998	     10.27304048	      1.74830360	      9.51696705	     15.44997267	      0.26965289	     42.07380625	     -8.17846476	      0.00000000	      7.94139789	      1.07939114	     18.97884779	     13.05601457	      0.22787044	     41.96711306	    -18.19087978	      0.00000000	      0.44973844	     -0.00794562	     -0.40999077	      0.83520926	     -0.01056768	     -0.43561520	      0.73887529	     -0.01931899	     -0.43561520	      0.51400607	     -0.01931899	     -0.35874193	      0.41762712	     -0.01620271	     -0.33311750	      0.25698055	     -0.01230777	     -0.30749308	      3.21243672	     -0.08988247	     -2.28024568	      0.00000000	      0.00000000	     27.82215236	      7.34076902	      3.41653511	     15.38076758	    -21.82448690	     63.01427076	     64.18273960	     77.84923598	     -6.08166852	      0.07658778	     15.12854356	    -28.31224893	     67.44258900	     61.93295274	     65.13831334	      7.14165098	     -6.24678579
      0.46428571	     -0.44380115	     -2.53633415	     88.81817074	      0.20742110	      0.82062506	      0.56483271	      9.58022541	      1.83753572	      9.39109715	     14.93577448	      0.26067844	     42.05677522	     -8.13895196	      0.00000000	      7.25230200	      0.88145311	     18.90071376	     12.51618246	      0.21844859	     41.98603024	    -18.08140969	      0.00000000	      0.41890325	     -0.01160706	     -0.29783822	      0.77794523	     -0.01543739	     -0.31645311	      0.68821615	     -0.02822141	     -0.31645311	      0.47876452	     -0.02822141	     -0.26060845	      0.38899356	     -0.02366912	     -0.24199356	      0.23936132	     -0.01797934	     -0.22337867	      2.99218403	     -0.13130140	     -1.65648685	      0.00000000	      0.00000000	     27.80888616	      6.13962100	      2.00719571	     13.58486005	    -23.84570101	     61.78032347	     63.06347714	     74.88107347	     -5.54979319	      1.66980210	     14.72378136	    -29.67395264	     67.37864097	     59.49811979	     70.67618132	      4.04400568	     -5.51020193
      0.48214286	     -0.47200994	     -2.42375768	     88.76486771	      0.20816904	      0.82109514	      0.56336132	      9.37424135	      1.89971872	      9.59772503	     14.88935463	      0.25986826	     42.06297163	     -8.53223743	      0.00000000	      7.06967054	      0.84748742	     18.73053490	     12.51029550	      0.21834585	     42.06989142	    -18.04388689	      0.00000000	      0.41227718	     -0.02944884	     -0.29214892	      0.76563995	     -0.03916696	     -0.31040822	      0.67733017	     -0.07160191	     -0.31040822	      0.47119159	     -0.07160191	     -0.25563030	      0.38284059	     -0.06005208	     -0.23737099	      0.23557518	     -0.04561626	     -0.21911169	      2.94485465	     -0.33313119	     -1.62484463	      0.00000000	      0.00000000	     27.74374121	      5.55838888	      1.31905643	     12.57313225	    -25.33567922	     61.64332688	     60.90486538	     71.29803500	     -3.84713986	      1.82935506	     12.48446696	    -30.66234575	     63.36561803	     56.30159285	     81.49033127	      1.64647159	     -4.59390084
      0.50000000	     -0.34496981	     -2.07182652	     88.82492348	      0.20859866	      0.82177526	      0.56175268	      8.75080882	      2.06605257	      9.59529824	     14.56366116	      0.25418384	     42.06439714	     -8.63761795	      0.00000000	      6.50960740	      0.66300176	     18.78206994	     12.30620839	      0.21478385	     42.10568838	    -18.01113148	      0.00000000	      0.36982050	     -0.03080089	     -0.22998122	      0.68679365	     -0.04096518	     -0.24435505	      0.60757810	     -0.07488928	     -0.24435505	      0.42266785	     -0.07488928	     -0.20123357	      0.34341532	     -0.06280917	     -0.18685974	      0.21131543	     -0.04771058	     -0.17248592	      2.64159084	     -0.34842581	     -1.27908657	      0.00000000	      0.00000000	     27.58431552	      4.56431347	      0.32812962	     10.76397460	    -26.70521017	     60.25814777	     58.49273553	     68.80803222	     -2.42201876	      1.12266177	     11.28219115	    -30.93896620	     62.24548980	     52.11015574	     85.81200511	     -2.90364252	     -3.17336308
      0.51785714	     -0.33686133	     -1.75855835	     88.89908596	      0.20946619	      0.82203073	      0.56058972	      8.31786560	      2.17018808	      9.73735070	     14.49414941	      0.25297063	     42.26294173	     -8.73459605	      0.00000000	      6.07399604	      0.60240834	     18.82760889	     12.27180522	      0.21418341	     42.16977893	    -17.95871178	      0.00000000	      0.33276638	     -0.05949102	     -0.24192202	      0.61798044	     -0.07912306	     -0.25704215	      0.54670188	     -0.14464647	     -0.25704215	      0.38031869	     -0.14464647	     -0.21168177	      0.30900686	     -0.12131409	     -0.19656165	      0.19014271	     -0.09215159	     -0.18144152	      2.37691697	     -0.67297433	     -1.34549773	      0.00000000	      0.00000000	     27.30058415	      4.22887994	     -0.46063348	      9.62808234	    -27.40089691	     60.23321022	     55.15829143	     67.56324772	     -1.35235670	     -0.07054886	      9.85821142	    -30.88305805	     61.24027465	     47.16301531	     87.85882507	     -6.94873261	     -1.30716400
      0.53571429	     -0.33737236	     -1.42797053	     88.96903784	      0.21058399	      0.82202318	      0.55947105	      7.84475224	      2.30349210	      9.90863272	     14.40816508	      0.25146992	     42.59327484	     -8.69895167	      0.00000000	      5.58134230	      0.53555334	     18.87637608	     12.22648123	      0.21339235	     42.18642923	    -17.88091395	      0.00000000	      0.29905512	     -0.09749530	     -0.30664832	      0.55537526	     -0.12966874	     -0.32581384	      0.49131765	     -0.23705007	     -0.32581384	      0.34179009	     -0.23705007	     -0.26831728	      0.27770258	     -0.19881241	     -0.24915176	      0.17088009	     -0.15102022	     -0.22998624	      2.13612079	     -1.10288630	     -1.70548596	      0.00000000	      0.00000000	     26.88140448	      4.43107067	     -0.92665335	      9.02316409	    -27.41508400	     61.62650945	     50.75141485	     67.33522190	     -1.00075594	     -2.40740365	      8.29891981	    -30.42022776	     60.73510535	     41.51357225	     87.93925800	    -10.31710292	      0.27423351
      0.55357143	     -0.44639039	     -1.02260805	     89.04698550	      0.21196925	      0.82168620	      0.55851955	      7.35174244	      2.34908614	      9.99485676	     14.47427989	      0.25262384	     43.15642724	     -8.42695091	      0.00000000	      5.01656255	      0.57023275	     18.96764879	     12.22896982	      0.21343579	     42.22728747	    -17.73689024	      0.00000000	      0.25371224	     -0.15554111	     -0.37807953	      0.47116900	     -0.20686968	     -0.40170950	      0.41682384	     -0.37818267	     -0.40170950	      0.28996772	     -0.37818267	     -0.33081959	      0.23559719	     -0.31717944	     -0.30718962	      0.14497117	     -0.24093319	     -0.28355965	      1.81224117	     -1.75951220	     -2.10276491	      0.00000000	      0.00000000	     26.44256430	      5.12234923	     -1.08779351	      8.61851378	    -26.78131734	     64.03655552	     45.70089493	     67.83757270	     -2.18160452	     -5.31167002	      6.75492273	    -29.72816690	     60.29810961	     35.47324566	     87.58363605	    -11.81005742	      0.68960717
      0.57142857	     -0.69840186	     -0.61531223	     89.15585297	      0.21344916	      0.82095528	      0.55761546	      6.88503083	      2.24948109	      9.89667207	     14.69189789	      0.25642199	     43.84870551	     -7.94430925	      0.00000000	      4.48725207	      0.75960138	     18.96660563	     12.31437339	      0.21492636	     42.32263326	    -17.48503659	      0.00000000	      0.21085577	     -0.23194804	     -0.44999716	      0.39158024	     -0.30849089	     -0.47812198	      0.34641494	     -0.56395847	     -0.47812198	      0.24098706	     -0.56395847	     -0.39374751	      0.19580067	     -0.47298844	     -0.36562269	      0.12048299	     -0.35928751	     -0.33749787	      1.50612166	     -2.62384262	     -2.50274920	      0.00000000	      0.00000000	     26.06211503	      6.18261449	     -0.89428862	      8.14152995	    -25.62517223	     66.98086672	     40.42094990	     67.65505056	     -4.19933891	     -7.87309199	      5.15091755	    -29.13667445	     59.72819488	     29.94627616	     86.66876345	    -11.61566143	      0.18266658
      0.58928571	     -0.82676202	     -0.11378777	     89.33171995	      0.21437559	      0.82010252	      0.55708700	      6.37437829	      2.11256916	      8.64530244	     15.07488848	      0.26310644	     44.76131707	     -6.13366015	      0.00000000	      3.97141083	      0.88938034	     19.09670680	     12.58083715	      0.21957703	     42.59251970	    -17.30680426	      0.00000000	      0.15268140	     -0.27663658	     -0.56681428	      0.28354463	     -0.36792666	     -0.60224018	      0.25084028	     -0.67261419	     -0.60224018	      0.17449958	     -0.67261419	     -0.49596250	      0.14177995	     -0.56411732	     -0.46053661	      0.08724215	     -0.42851007	     -0.42511071	      1.09058800	     -3.12936836	     -3.15245101	      0.00000000	      0.00000000	     25.72723233	      7.20390337	      0.20860664	      9.28742825	    -24.58484518	     76.92312283	     35.46617338	     57.23870164	     -7.05547299	    -10.80389814	      3.74231056	    -28.56792671	     60.46928586	     25.33970132	     84.99450654	    -10.91119532	     -0.50681347
      0.60714286	     -0.94751045	      0.35721489	     89.49640248	      0.21487871	      0.81933230	      0.55614972	      5.71876368	      2.05293877	      8.30679309	     15.28352043	      0.26674775	     45.20566639	     -5.56642544	      0.00000000	      3.41308971	      1.02352111	     19.17215431	     12.74329781	      0.22241250	     42.96839363	    -16.98329427	      0.00000000	      0.10440385	     -0.30243596	     -0.58789862	      0.19388839	     -0.40223983	     -0.62464228	      0.17152508	     -0.73534279	     -0.62464228	      0.11932316	     -0.73534279	     -0.51441129	      0.09694941	     -0.61672741	     -0.47766763	      0.05965636	     -0.46847330	     -0.44092396	      0.74574624	     -3.42121607	     -3.26971573	      0.00000000	      0.00000000	     25.51091205	      7.95945909	      1.40555217	      8.91879925	    -23.50678750	     83.36010981	     31.11520121	     48.71014183	     -6.88785436	    -11.81111382	      3.48806996	    -27.89884198	     66.52231922	     21.07693308	     83.18270393	    -10.15613649	     -1.95830906
